<svg xmlns="http://www.w3.org/2000/svg" viewBox="0 0 600 442"><rect class="background" height="2000%" width="2000%" y="-1000%" x="-1000%" fill="#fff"/><rect class="watermarklayer" height="100%" width="100%" fill="none"/><g class="content"><g class="icon" transform="translate(1.4 25.8)"><svg height="98" width="141" xmlns="http://www.w3.org/2000/svg" x="229" y="93" preserveAspectRatio="none"><svg xmlns="http://www.w3.org/2000/svg" viewBox="229 93 141 98"><defs><linearGradient x1="100%" y1="57%" x2="6%" y2="55%" id="a"><stop stop-color="#A0A0A0" offset="0%"/><stop stop-color="#E7E7E7" offset="23%"/><stop stop-color="#C036F9" offset="60%"/><stop stop-color="#4401B5" offset="100%"/></linearGradient></defs><path d="m313.5 97.083 42.581 24.584a28 28 0 0 1 14 24.249v45a28 28 0 0 0-14-24.249L313.5 142.083a28 28 0 0 0-28 0l-42.581 24.584a28 28 0 0 0-14 24.249v-45a28 28 0 0 1 14-24.249L285.5 97.083a28 28 0 0 1 28 0Z" fill="url(#a)"/></svg></svg><svg height="98" width="141" xmlns="http://www.w3.org/2000/svg" x="229" y="150" preserveAspectRatio="none"><svg xmlns="http://www.w3.org/2000/svg" viewBox="229 150 141 98"><defs><linearGradient x1="97%" y1="61%" x2="5%" y2="36%" id="b"><stop stop-color="#BD38FB" offset="0%"/><stop stop-color="#4300B4" offset="48%"/><stop stop-color="#EEE" offset="82%"/><stop stop-color="#AFAFB3" offset="100%"/></linearGradient></defs><path d="M228.923 190.455a28.006 28.006 0 0 1 8.877-19.997 28 28 0 0 0 5.119 3.79l42.581 24.585.42.238a28 28 0 0 0 27.58-.238l42.581-24.584.398-.234A28 28 0 0 0 370.08 150v45a28 28 0 0 1-14 24.249l-42.58 24.584a28 28 0 0 1-28 0l-42.581-24.584a28 28 0 0 1-14-24.249v-4.084Z" fill="url(#b)"/></svg></svg><svg height="154" width="141" xmlns="http://www.w3.org/2000/svg" x="229" y="93" preserveAspectRatio="none"><svg xmlns="http://www.w3.org/2000/svg" viewBox="229 93 141 154"><defs><linearGradient x1="65%" y1="16%" x2="33%" y2="85%" id="c"><stop stop-color="#4300B4" offset="0%"/><stop stop-color="#BD38FB" offset="100%"/></linearGradient></defs><path d="m313.5 97.083 42.581 24.584a28.002 28.002 0 0 1 13.648 19.82c-1.102.458-2.18.99-3.229 1.596l-42.581 24.584a28 28 0 0 0-14 24.249v49.168c0 1.498.12 2.978.352 4.43a28 28 0 0 1-24.771-1.597l-42.581-24.584a28.001 28.001 0 0 1-13.831-21.176 27.75 27.75 0 0 0 2.412-1.24l42.581-24.584a28 28 0 0 0 14-24.249V98.916c0-1.034-.057-2.059-.169-3.072a27.994 27.994 0 0 1 25.588 1.239Z" fill="url(#c)"/></svg></svg></g><g class="name_and_slogan"><path d="M216.9 274q-1.1 0-1.5-.3-.4-.4-.4-1.5 0-1.3.4-1.6.4-.3 1.5-.3.9 0 1.4.3.4.3.4 1.6 0 1.1-.4 1.5-.5.3-1.4.3Zm-1.6 3.6h3.1V297h-3.1v-19.4m17 17h1.2q.4-.1 1-.2v2.6q-.6.1-1.1.2h-1.2q-1.6 0-2.7-.2t-1.8-.9q-.7-.7-1-1.9-.3-1.2-.3-3.1v-10.9h-2.9v-2.6h2.9V273h3.1v4.6h4.8v2.6h-4.8v10.7q0 1.1.1 1.9.1.7.4 1.1.3.4.9.6.5.1 1.4.1m23.4-9.3v1q-.1.6-.2 1.3l-13.1.8q0 1.6.3 2.8.3 1.2 1 1.9.8.8 1.9 1.1 1.2.4 3 .4 1.6 0 3.3-.3 1.7-.4 2.8-.9v2.8q-.5.2-1.1.4-.7.3-1.6.4-.9.2-1.8.3-1 .1-2.1.1-2.1 0-3.8-.5-1.7-.5-2.8-1.7-1.2-1.2-1.8-3.1-.6-1.9-.6-4.8t.6-4.9q.6-1.9 1.7-3.1 1.2-1.1 2.8-1.6 1.7-.5 3.7-.5 2.5 0 4.1.7 1.5.8 2.3 1.9.8 1.2 1.1 2.7.3 1.4.3 2.8Zm-3 .1q0-1.2-.2-2.2-.1-1-.6-1.8-.5-.7-1.4-1.2-1-.4-2.6-.4-1.7 0-2.7.4-1.1.4-1.7 1.3-.6.8-.8 2-.3 1.2-.3 2.6l10.3-.7m18.4 12q-2.1 0-3.8-.5-1.7-.5-2.8-1.7-1.2-1.2-1.8-3.1-.6-1.9-.6-4.8t.6-4.9q.6-1.9 1.8-3.1 1.1-1.1 2.8-1.6 1.7-.5 3.8-.5 1.7 0 3 .2t2.1.5v2.9q-1.1-.4-2.3-.7-1.2-.2-2.7-.2-1.7 0-2.7.4-1.1.3-1.8 1.2-.7.8-1 2.2-.3 1.5-.3 3.6t.3 3.5q.3 1.4 1 2.3.7.8 1.8 1.2 1.1.3 2.7.3 1.4 0 2.7-.2 1.3-.2 2.4-.6v2.8q-.4.2-1 .3-.6.1-1.3.2-.7.1-1.5.2-.7.1-1.4.1m21.5-20.2q1.9 0 3.2.5 1.2.4 2 1.3.7.8 1 2 .3 1.1.3 2.5V297H296v-12.3q0-1.1-.1-2-.2-.9-.6-1.5-.4-.6-1.1-.9-.8-.3-1.9-.3-1 0-1.8.1-.9.1-1.7.5-.8.4-1.4 1.2-.6.8-1 2.1V297h-3.1v-27.4h3.1v10.7q.4-.9 1.1-1.5.7-.6 1.5-1 .9-.3 1.8-.5.9-.1 1.8-.1m21.8-5.2q-1 0-1.6.2-.7.3-1.1.9-.4.7-.5 1.7-.2 1.1-.2 2.8h4.6v2.5H311V297h-3.1v-16.9h-3.3v-2.5h3.3v-.2q0-2.5.5-4.1.4-1.5 1.3-2.4.8-.8 2.1-1.1 1.2-.3 2.6-.3.6 0 1.1.1.6 0 1.1.1v2.5q-.9-.2-2.2-.2m15.6 5.2q2.3 0 3.8.5 1.5.4 2.3 1.2.9.8 1.3 1.9.3 1.1.3 2.4V297h-2.6l-.5-3q-.4.8-1.1 1.5-.7.6-1.7 1-.9.4-2 .6-1 .3-2.1.3-3.5 0-5.1-1.5-1.6-1.6-1.6-4.3 0-1.8.5-2.9.6-1.2 1.6-2 1-.7 2.4-1 1.5-.3 3.2-.3h5.9v-1.6q0-.9-.2-1.6-.2-.8-.7-1.3-.5-.5-1.5-.8-.9-.3-2.4-.3-.9 0-2.1.1-1.1.1-2.2.3v-2.7q1.1-.2 2.3-.2 1.1-.1 2.2-.1Zm-2 17.6q2.4 0 4.1-1 1.8-1 2.5-2.7v-3.2h-5.7q-1.2 0-2.1.1-.9.1-1.5.6-.5.4-.8 1.1-.3.7-.3 1.8 0 1.6.8 2.5.9.8 3 .8m27.6-17.6q1.9 0 3.2.5 1.2.4 2 1.3.7.8 1 2 .3 1.1.3 2.5V297H359v-12.3q0-1.1-.2-2-.1-.9-.5-1.5t-1.2-.9q-.7-.3-1.8-.3-1 0-1.8.1-.9.1-1.7.5-.8.4-1.4 1.2-.6.8-1 2.1V297h-3.1v-19.4h3.1v2.7q.4-.9 1.1-1.5.7-.6 1.5-1 .9-.3 1.8-.5.9-.1 1.8-.1m19.2 20h-1.6l-1.6-.2q-.7 0-1.4-.2-.7-.1-1.1-.2v-2.7q.5.2 1.2.3.7.2 1.5.3.7.1 1.5.2h1.4q2.3 0 3.4-.6 1.1-.7 1.1-2.4 0-.9-.1-1.4-.2-.6-.6-.9-.5-.4-1.4-.7-.8-.3-2.2-.6-1.6-.4-2.7-.9-1-.4-1.6-1.1-.6-.6-.9-1.5-.2-.9-.2-2.1 0-2.4 1.7-3.9 1.7-1.4 5.2-1.4 1.4 0 2.8.2t2.1.4l-.2 2.7q-.8-.3-2-.6-1.3-.2-2.6-.2-2.1 0-3.1.6t-1 2.2q0 .8.1 1.3.2.4.6.8.4.3 1.1.5.7.3 1.9.5 1.6.4 2.8.9 1.2.4 1.9 1.1.7.6 1 1.6.4 1 .4 2.4 0 2.9-1.9 4.3-1.9 1.3-5.5 1.3" transform="translate(1.4 25.8)" class="name"/></g></g></svg>